<?xml version="1.0" encoding="UTF-8"?>
<svg width="450px" height="493px" viewBox="0 0 450 493" version="1.1" xmlns="http://www.w3.org/2000/svg" xmlns:xlink="http://www.w3.org/1999/xlink">
    <!-- Generator: Sketch 57.1 (83088) - https://sketch.com -->
    <title>Laptop</title>
    <desc>Created with Sketch.</desc>
    <g id="Page-1" stroke="none" stroke-width="1" fill="none" fill-rule="evenodd">
        <g id="Laptop" transform="translate(-163.000000, -50.000000)">
            <g transform="translate(156.687500, 47.453125)">
                <g id="Screen" transform="translate(81.261218, 0.000000)">
                    <path d="M32.8598283,73 L339.936716,73 C342.390687,73 344.597313,74.4943583 345.508129,76.7730392 L420.711585,264.917139 C421.941501,267.994146 420.444139,271.485596 417.367133,272.715513 C416.658806,272.99864 415.902987,273.1441 415.140172,273.1441 L108.063284,273.1441 C105.609313,273.1441 103.402687,271.649741 102.491871,269.37106 L27.288415,81.2269608 C26.0584985,78.1499542 27.5558609,74.6585032 30.6328675,73.4285867 C31.3411942,73.1454601 32.0970128,73 32.8598283,73 Z" id="Rectangle" fill="#DCDCDC" transform="translate(224.000000, 173.072050) rotate(24.000000) translate(-224.000000, -173.072050) "></path>
                    <path d="M34.6349516,75.2628693 L335.292096,75.2628693 C337.737759,75.2628693 339.93866,76.7472618 340.855011,79.0147635 L414.405527,261.014764 C415.647121,264.087077 414.163031,267.58419 411.090718,268.825784 C410.376364,269.114471 409.613093,269.262869 408.842612,269.262869 L108.185467,269.262869 C105.739805,269.262869 103.538904,267.778477 102.622552,265.510975 L29.0720369,83.510975 C27.8304424,80.4386621 29.3145329,76.9415491 32.3868459,75.6999545 C33.1011997,75.4112672 33.8644701,75.2628693 34.6349516,75.2628693 Z" id="Rectangle" fill="#3E3E3E" transform="translate(221.738782, 172.262869) rotate(24.000000) translate(-221.738782, -172.262869) "></path>
                    <polygon id="Rectangle" fill-opacity="0.06" fill="#D8D8D8" transform="translate(183.183817, 140.663119) rotate(60.000000) translate(-183.183817, -140.663119) " points="149.34072 61.0811155 221.228766 8.66311949 217.440508 252.708511 191.85336 272.663119 145.138869 242.600269"></polygon>
                    <path d="M228.244456,82.8168283 C241.880906,70.3116552 251.591709,63.6704367 257.376865,62.8931728 C263.16202,62.1159089 270.660244,66.4450104 279.871536,75.8804775 L272.237671,290.083913 L224.541192,322.841826 L228.244456,82.8168283 Z" id="Rectangle" fill-opacity="0.06" fill="#D8D8D8" transform="translate(252.206364, 192.823133) rotate(60.000000) translate(-252.206364, -192.823133) "></path>
                </g>
                <g id="Base" transform="translate(0.000000, 178.262869)">
                    <path d="M113.995739,79.003249 L416.295624,79.1143622 C419.609333,79.1155802 422.294637,81.8028589 422.293419,85.1165672 C422.293138,85.8795514 422.147336,86.6354805 421.863827,87.3438361 L348.425962,270.830528 C346.451094,275.764793 341.671542,279 336.356745,279 L36.2987818,279 C32.4327885,279 29.2987818,275.865993 29.2987818,272 C29.2987818,271.118039 29.465452,270.244022 29.7900195,269.423954 L101.90326,87.2191626 C103.866492,82.2587651 108.660965,79.0012882 113.995739,79.003249 Z" id="Shadow" fill="#B0B0B0" transform="translate(225.578125, 179.000000) rotate(-156.000000) translate(-225.578125, -179.000000) "></path>
                    <path d="M111.995739,73.003249 L409.865312,73.1127338 C414.835874,73.1145608 418.86383,77.1454788 418.862003,82.1160412 C418.861582,83.2605176 418.642879,84.3944113 418.217615,85.4569447 L346.425962,264.830528 C344.451094,269.764793 339.671542,273 334.356745,273 L34.2987818,273 C30.4327885,273 27.2987818,269.865993 27.2987818,266 C27.2987818,265.118039 27.465452,264.244022 27.7900195,263.423954 L99.9032596,81.2191626 C101.866492,76.2587651 106.660965,73.0012882 111.995739,73.003249 Z" id="Body" fill="#DCDCDC" transform="translate(223.578125, 173.000000) rotate(-156.000000) translate(-223.578125, -173.000000) "></path>
                    <path d="M142.235411,185.779927 L245.032293,185.81736 C247.241432,185.818165 249.03164,187.609678 249.030836,189.818817 C249.030649,190.331824 248.931781,190.840006 248.739621,191.315664 L224.111887,252.277244 C223.501099,253.789141 222.033714,254.77894 220.403102,254.77894 L117.865342,254.77894 C115.656203,254.77894 113.865342,252.988079 113.865342,250.77894 C113.865342,250.270652 113.962218,249.767021 114.150785,249.295005 L138.519397,188.295992 C139.126619,186.776005 140.598622,185.779331 142.235411,185.779927 Z" id="TrackPad" fill="#C7C5C5" transform="translate(181.459997, 220.278940) rotate(-156.000000) translate(-181.459997, -220.278940) "></path>
                    <g id="KeyBoard" transform="translate(83.312500, 51.284006)">
                        <path d="M47.2775412,58.7147751 L301.618584,59.6005003 C304.932273,59.61204 307.609193,62.30767 307.597654,65.6213584 C307.594779,66.4468019 307.421614,67.2627737 307.088989,68.0182379 L273.795344,143.635469 C272.834327,145.818151 270.671859,147.224451 268.286988,147.217671 L13.9426749,146.494643 C10.6289798,146.485223 7.95033551,143.791306 7.9597554,140.477611 C7.96210123,139.652401 8.1346467,138.836545 8.46660573,138.081045 L41.7635213,62.3011164 C42.7241106,60.1149262 44.8896362,58.7064594 47.2775412,58.7147751 Z" id="Container" fill="#C7C5C5" transform="translate(157.781201, 102.964957) rotate(-156.000000) translate(-157.781201, -102.964957) "></path>
                        <path d="M73.7790467,58.414301 L328.46181,59.0757345 C330.485923,59.0809913 332.12253,60.7261211 332.117273,62.7502347 C332.115847,63.2993663 331.991042,63.8411588 331.752082,64.335573 L330.308282,67.3228229 C329.641023,68.7033954 328.243268,69.5810215 326.709902,69.5821842 L72.2120155,69.7751616 C70.0033513,69.7768363 68.2115176,67.9877179 68.2098428,65.7790537 C68.2094015,65.196989 68.3360249,64.6218436 68.5808706,64.0937811 L70.139767,60.7316861 C70.7965805,59.3151268 72.2176282,58.4102459 73.7790467,58.414301 Z" id="TouchBar" fill="#646262" transform="translate(200.115675, 64.093781) rotate(-156.000000) translate(-200.115675, -64.093781) "></path>
                        <g id="Row1-Keyboard" transform="translate(58.432152, 20.000000)" fill="#646262">
                            <path d="M17.7471053,1.00905792 L28.5538662,5.82053786 C30.5720151,6.71907564 31.4796392,9.08351736 30.5811014,11.1016663 C30.3554819,11.6084161 30.0269291,12.0626998 29.6163162,12.4356564 L21.5268378,19.7832689 C20.3527517,20.8496826 18.65947,21.1216395 17.2104947,20.4765141 L5.89179123,15.4371026 C3.87364233,14.5385648 2.96601819,12.1741231 3.86455597,10.1559742 C4.11539772,9.59257442 4.49311662,9.0948067 4.96819827,8.70156588 L13.5696192,1.58188484 C14.7402526,0.612912828 16.3588501,0.390966857 17.7471053,1.00905792 Z" id="Polygon"></path>
                            <path d="M38.5378395,10.2633261 L49.3446003,15.0748061 C51.3627492,15.9733438 52.2703734,18.3377856 51.3718356,20.3559345 C51.1462161,20.8626843 50.8176632,21.316968 50.4070504,21.6899246 L42.317572,29.0375371 C41.1434859,30.1039507 39.4502042,30.3759077 38.0012288,29.7307823 L26.6825254,24.6913708 C24.6643765,23.792833 23.7567524,21.4283913 24.6552901,19.4102424 C24.9061319,18.8468426 25.2838508,18.3490749 25.7589324,17.9558341 L34.3603534,10.836153 C35.5309867,9.86718102 37.1495842,9.64523505 38.5378395,10.2633261 Z" id="Polygon"></path>
                            <path d="M59.549385,19.6182689 L70.3561459,24.4297488 C72.3742948,25.3282866 73.2819189,27.6927283 72.3833811,29.7108772 C72.1577616,30.217627 71.8292088,30.6719108 71.4185959,31.0448673 L63.3291175,38.3924799 C62.1550314,39.4588935 60.4617497,39.7308504 59.0127744,39.0857251 L47.6940709,34.0463136 C45.675922,33.1477758 44.7682979,30.7833341 45.6668357,28.7651852 C45.9176774,28.2017854 46.2953963,27.7040177 46.770478,27.3107769 L55.3718989,20.1910958 C56.5425323,19.2221238 58.1611297,19.0001778 59.549385,19.6182689 Z" id="Polygon"></path>
                            <path d="M80.5609305,28.9732117 L91.3676914,33.7846916 C93.3858403,34.6832294 94.2934644,37.0476711 93.3949267,39.06582 C93.1693071,39.5725698 92.8407543,40.0268535 92.4301414,40.3998101 L84.3406631,47.7474227 C83.1665769,48.8138363 81.4732952,49.0857932 80.0243199,48.4406679 L68.7056164,43.4012564 C66.6874675,42.5027186 65.7798434,40.1382769 66.6783812,38.120128 C66.9292229,37.5567282 67.3069418,37.0589605 67.7820235,36.6657197 L76.3834444,29.5460386 C77.5540778,28.5770666 79.1726753,28.3551206 80.5609305,28.9732117 Z" id="Polygon"></path>
                            <path d="M102.486022,38.7348911 L113.292782,43.5463711 C115.310931,44.4449088 116.218555,46.8093506 115.320018,48.8274995 C115.094398,49.3342493 114.765845,49.788533 114.355232,50.1614896 L106.265754,57.5091021 C105.091668,58.5755158 103.398386,58.8474727 101.949411,58.2023473 L90.6307074,53.1629358 C88.6125585,52.2643981 87.7049344,49.8999563 88.6034722,47.8818074 C88.8543139,47.3184076 89.2320328,46.8206399 89.7071145,46.4273991 L98.3085354,39.307718 C99.4791688,38.338746 101.097766,38.1168001 102.486022,38.7348911 Z" id="Polygon"></path>
                            <path d="M124.411112,48.4965706 L135.217873,53.3080505 C137.236022,54.2065883 138.143646,56.57103 137.245109,58.5891789 C137.019489,59.0959287 136.690936,59.5502124 136.280323,59.923169 L128.190845,67.2707816 C127.016759,68.3371952 125.323477,68.6091521 123.874502,67.9640267 L112.555798,62.9246153 C110.53765,62.0260775 109.630025,59.6616358 110.528563,57.6434869 C110.779405,57.0800871 111.157124,56.5823193 111.632205,56.1890785 L120.233626,49.0693975 C121.40426,48.1004255 123.022857,47.8784795 124.411112,48.4965706 Z" id="Polygon"></path>
                            <path d="M146.336203,58.25825 L157.142964,63.0697299 C159.161113,63.9682677 160.068737,66.3327094 159.1702,68.3508583 C158.94458,68.8576081 158.616027,69.3118919 158.205414,69.6848484 L150.115936,77.032461 C148.94185,78.0988746 147.248568,78.3708315 145.799593,77.7257062 L134.480889,72.6862947 C132.46274,71.7877569 131.555116,69.4233152 132.453654,67.4051663 C132.704496,66.8417665 133.082215,66.3439988 133.557296,65.950758 L142.158717,58.8310769 C143.329351,57.8621049 144.947948,57.6401589 146.336203,58.25825 Z" id="Polygon"></path>
                            <path d="M168.261294,68.0199294 L179.068055,72.8314094 C181.086204,73.7299471 181.993828,76.0943889 181.095291,78.1125378 C180.869671,78.6192876 180.541118,79.0735713 180.130505,79.4465279 L172.041027,86.7941404 C170.866941,87.8605541 169.173659,88.132511 167.724684,87.4873856 L156.40598,82.4479741 C154.387831,81.5494364 153.480207,79.1849946 154.378745,77.1668457 C154.629587,76.6034459 155.007306,76.1056782 155.482387,75.7124374 L164.083808,68.5927564 C165.254442,67.6237843 166.873039,67.4018384 168.261294,68.0199294 Z" id="Polygon"></path>
                            <path d="M190.186385,77.7816089 L200.993146,82.5930888 C203.011295,83.4916266 203.918919,85.8560683 203.020382,87.8742172 C202.794762,88.380967 202.466209,88.8352507 202.055596,89.2082073 L193.966118,96.5558199 C192.792032,97.6222335 191.09875,97.8941904 189.649775,97.249065 L178.331071,92.2096536 C176.312922,91.3111158 175.405298,88.9466741 176.303836,86.9285252 C176.554678,86.3651254 176.932397,85.8673576 177.407478,85.4741168 L186.008899,78.3544358 C187.179533,77.3854638 188.79813,77.1635178 190.186385,77.7816089 Z" id="Polygon"></path>
                            <path d="M212.111476,87.5432883 L222.918237,92.3547682 C224.936386,93.253306 225.84401,95.6177477 224.945473,97.6358966 C224.719853,98.1426464 224.3913,98.5969302 223.980687,98.9698867 L215.891209,106.317499 C214.717123,107.383913 213.023841,107.65587 211.574866,107.010744 L200.256162,101.971333 C198.238013,101.072795 197.330389,98.7083535 198.228927,96.6902046 C198.479769,96.1268048 198.857488,95.6290371 199.332569,95.2357963 L207.93399,88.1161152 C209.104624,87.1471432 210.723221,86.9251972 212.111476,87.5432883 Z" id="Polygon"></path>
                            <path d="M234.036568,97.3049678 L244.843328,102.116448 C246.861477,103.014986 247.769102,105.379427 246.870564,107.397576 C246.644944,107.904326 246.316391,108.35861 245.905778,108.731566 L237.8163,116.079179 C236.642214,117.145592 234.948932,117.417549 233.499957,116.772424 L222.181254,111.733013 C220.163105,110.834475 219.25548,108.470033 220.154018,106.451884 C220.40486,105.888484 220.782579,105.390717 221.257661,104.997476 L229.859081,97.8777947 C231.029715,96.9088227 232.648312,96.6868768 234.036568,97.3049678 Z" id="Polygon"></path>
                        </g>
                        <g id="Row2-Keyboard" transform="translate(42.604840, 34.684334)" fill="#646262">
                            <path d="M17.7471053,1.00905792 L28.5538662,5.82053786 C30.5720151,6.71907564 31.4796392,9.08351736 30.5811014,11.1016663 C30.3554819,11.6084161 30.0269291,12.0626998 29.6163162,12.4356564 L21.5268378,19.7832689 C20.3527517,20.8496826 18.65947,21.1216395 17.2104947,20.4765141 L5.89179123,15.4371026 C3.87364233,14.5385648 2.96601819,12.1741231 3.86455597,10.1559742 C4.11539772,9.59257442 4.49311662,9.0948067 4.96819827,8.70156588 L13.5696192,1.58188484 C14.7402526,0.612912828 16.3588501,0.390966857 17.7471053,1.00905792 Z" id="Polygon"></path>
                            <path d="M38.5378395,10.2633261 L49.3446003,15.0748061 C51.3627492,15.9733438 52.2703734,18.3377856 51.3718356,20.3559345 C51.1462161,20.8626843 50.8176632,21.316968 50.4070504,21.6899246 L42.317572,29.0375371 C41.1434859,30.1039507 39.4502042,30.3759077 38.0012288,29.7307823 L26.6825254,24.6913708 C24.6643765,23.792833 23.7567524,21.4283913 24.6552901,19.4102424 C24.9061319,18.8468426 25.2838508,18.3490749 25.7589324,17.9558341 L34.3603534,10.836153 C35.5309867,9.86718102 37.1495842,9.64523505 38.5378395,10.2633261 Z" id="Polygon"></path>
                            <path d="M59.549385,19.6182689 L70.3561459,24.4297488 C72.3742948,25.3282866 73.2819189,27.6927283 72.3833811,29.7108772 C72.1577616,30.217627 71.8292088,30.6719108 71.4185959,31.0448673 L63.3291175,38.3924799 C62.1550314,39.4588935 60.4617497,39.7308504 59.0127744,39.0857251 L47.6940709,34.0463136 C45.675922,33.1477758 44.7682979,30.7833341 45.6668357,28.7651852 C45.9176774,28.2017854 46.2953963,27.7040177 46.770478,27.3107769 L55.3718989,20.1910958 C56.5425323,19.2221238 58.1611297,19.0001778 59.549385,19.6182689 Z" id="Polygon"></path>
                            <path d="M80.5609305,28.9732117 L91.3676914,33.7846916 C93.3858403,34.6832294 94.2934644,37.0476711 93.3949267,39.06582 C93.1693071,39.5725698 92.8407543,40.0268535 92.4301414,40.3998101 L84.3406631,47.7474227 C83.1665769,48.8138363 81.4732952,49.0857932 80.0243199,48.4406679 L68.7056164,43.4012564 C66.6874675,42.5027186 65.7798434,40.1382769 66.6783812,38.120128 C66.9292229,37.5567282 67.3069418,37.0589605 67.7820235,36.6657197 L76.3834444,29.5460386 C77.5540778,28.5770666 79.1726753,28.3551206 80.5609305,28.9732117 Z" id="Polygon"></path>
                            <path d="M102.486022,38.7348911 L113.292782,43.5463711 C115.310931,44.4449088 116.218555,46.8093506 115.320018,48.8274995 C115.094398,49.3342493 114.765845,49.788533 114.355232,50.1614896 L106.265754,57.5091021 C105.091668,58.5755158 103.398386,58.8474727 101.949411,58.2023473 L90.6307074,53.1629358 C88.6125585,52.2643981 87.7049344,49.8999563 88.6034722,47.8818074 C88.8543139,47.3184076 89.2320328,46.8206399 89.7071145,46.4273991 L98.3085354,39.307718 C99.4791688,38.338746 101.097766,38.1168001 102.486022,38.7348911 Z" id="Polygon"></path>
                            <path d="M124.411112,48.4965706 L135.217873,53.3080505 C137.236022,54.2065883 138.143646,56.57103 137.245109,58.5891789 C137.019489,59.0959287 136.690936,59.5502124 136.280323,59.923169 L128.190845,67.2707816 C127.016759,68.3371952 125.323477,68.6091521 123.874502,67.9640267 L112.555798,62.9246153 C110.53765,62.0260775 109.630025,59.6616358 110.528563,57.6434869 C110.779405,57.0800871 111.157124,56.5823193 111.632205,56.1890785 L120.233626,49.0693975 C121.40426,48.1004255 123.022857,47.8784795 124.411112,48.4965706 Z" id="Polygon"></path>
                            <path d="M146.336203,58.25825 L157.142964,63.0697299 C159.161113,63.9682677 160.068737,66.3327094 159.1702,68.3508583 C158.94458,68.8576081 158.616027,69.3118919 158.205414,69.6848484 L150.115936,77.032461 C148.94185,78.0988746 147.248568,78.3708315 145.799593,77.7257062 L134.480889,72.6862947 C132.46274,71.7877569 131.555116,69.4233152 132.453654,67.4051663 C132.704496,66.8417665 133.082215,66.3439988 133.557296,65.950758 L142.158717,58.8310769 C143.329351,57.8621049 144.947948,57.6401589 146.336203,58.25825 Z" id="Polygon"></path>
                            <path d="M168.261294,68.0199294 L179.068055,72.8314094 C181.086204,73.7299471 181.993828,76.0943889 181.095291,78.1125378 C180.869671,78.6192876 180.541118,79.0735713 180.130505,79.4465279 L172.041027,86.7941404 C170.866941,87.8605541 169.173659,88.132511 167.724684,87.4873856 L156.40598,82.4479741 C154.387831,81.5494364 153.480207,79.1849946 154.378745,77.1668457 C154.629587,76.6034459 155.007306,76.1056782 155.482387,75.7124374 L164.083808,68.5927564 C165.254442,67.6237843 166.873039,67.4018384 168.261294,68.0199294 Z" id="Polygon"></path>
                            <path d="M190.186385,77.7816089 L200.993146,82.5930888 C203.011295,83.4916266 203.918919,85.8560683 203.020382,87.8742172 C202.794762,88.380967 202.466209,88.8352507 202.055596,89.2082073 L193.966118,96.5558199 C192.792032,97.6222335 191.09875,97.8941904 189.649775,97.249065 L178.331071,92.2096536 C176.312922,91.3111158 175.405298,88.9466741 176.303836,86.9285252 C176.554678,86.3651254 176.932397,85.8673576 177.407478,85.4741168 L186.008899,78.3544358 C187.179533,77.3854638 188.79813,77.1635178 190.186385,77.7816089 Z" id="Polygon"></path>
                            <path d="M212.111476,87.5432883 L222.918237,92.3547682 C224.936386,93.253306 225.84401,95.6177477 224.945473,97.6358966 C224.719853,98.1426464 224.3913,98.5969302 223.980687,98.9698867 L215.891209,106.317499 C214.717123,107.383913 213.023841,107.65587 211.574866,107.010744 L200.256162,101.971333 C198.238013,101.072795 197.330389,98.7083535 198.228927,96.6902046 C198.479769,96.1268048 198.857488,95.6290371 199.332569,95.2357963 L207.93399,88.1161152 C209.104624,87.1471432 210.723221,86.9251972 212.111476,87.5432883 Z" id="Polygon"></path>
                            <path d="M234.036568,97.3049678 L244.843328,102.116448 C246.861477,103.014986 247.769102,105.379427 246.870564,107.397576 C246.644944,107.904326 246.316391,108.35861 245.905778,108.731566 L237.8163,116.079179 C236.642214,117.145592 234.948932,117.417549 233.499957,116.772424 L222.181254,111.733013 C220.163105,110.834475 219.25548,108.470033 220.154018,106.451884 C220.40486,105.888484 220.782579,105.390717 221.257661,104.997476 L229.859081,97.8777947 C231.029715,96.9088227 232.648312,96.6868768 234.036568,97.3049678 Z" id="Polygon"></path>
                        </g>
                        <g id="Row3-Keyboard" transform="translate(26.755007, 50.614895)" fill="#646262">
                            <path d="M17.7471053,1.00905792 L28.5538662,5.82053786 C30.5720151,6.71907564 31.4796392,9.08351736 30.5811014,11.1016663 C30.3554819,11.6084161 30.0269291,12.0626998 29.6163162,12.4356564 L21.5268378,19.7832689 C20.3527517,20.8496826 18.65947,21.1216395 17.2104947,20.4765141 L5.89179123,15.4371026 C3.87364233,14.5385648 2.96601819,12.1741231 3.86455597,10.1559742 C4.11539772,9.59257442 4.49311662,9.0948067 4.96819827,8.70156588 L13.5696192,1.58188484 C14.7402526,0.612912828 16.3588501,0.390966857 17.7471053,1.00905792 Z" id="Polygon"></path>
                            <path d="M38.5378395,10.2633261 L49.3446003,15.0748061 C51.3627492,15.9733438 52.2703734,18.3377856 51.3718356,20.3559345 C51.1462161,20.8626843 50.8176632,21.316968 50.4070504,21.6899246 L42.317572,29.0375371 C41.1434859,30.1039507 39.4502042,30.3759077 38.0012288,29.7307823 L26.6825254,24.6913708 C24.6643765,23.792833 23.7567524,21.4283913 24.6552901,19.4102424 C24.9061319,18.8468426 25.2838508,18.3490749 25.7589324,17.9558341 L34.3603534,10.836153 C35.5309867,9.86718102 37.1495842,9.64523505 38.5378395,10.2633261 Z" id="Polygon"></path>
                            <path d="M59.549385,19.6182689 L70.3561459,24.4297488 C72.3742948,25.3282866 73.2819189,27.6927283 72.3833811,29.7108772 C72.1577616,30.217627 71.8292088,30.6719108 71.4185959,31.0448673 L63.3291175,38.3924799 C62.1550314,39.4588935 60.4617497,39.7308504 59.0127744,39.0857251 L47.6940709,34.0463136 C45.675922,33.1477758 44.7682979,30.7833341 45.6668357,28.7651852 C45.9176774,28.2017854 46.2953963,27.7040177 46.770478,27.3107769 L55.3718989,20.1910958 C56.5425323,19.2221238 58.1611297,19.0001778 59.549385,19.6182689 Z" id="Polygon"></path>
                            <path d="M80.5609305,28.9732117 L91.3676914,33.7846916 C93.3858403,34.6832294 94.2934644,37.0476711 93.3949267,39.06582 C93.1693071,39.5725698 92.8407543,40.0268535 92.4301414,40.3998101 L84.3406631,47.7474227 C83.1665769,48.8138363 81.4732952,49.0857932 80.0243199,48.4406679 L68.7056164,43.4012564 C66.6874675,42.5027186 65.7798434,40.1382769 66.6783812,38.120128 C66.9292229,37.5567282 67.3069418,37.0589605 67.7820235,36.6657197 L76.3834444,29.5460386 C77.5540778,28.5770666 79.1726753,28.3551206 80.5609305,28.9732117 Z" id="Polygon"></path>
                            <path d="M102.486022,38.7348911 L113.292782,43.5463711 C115.310931,44.4449088 116.218555,46.8093506 115.320018,48.8274995 C115.094398,49.3342493 114.765845,49.788533 114.355232,50.1614896 L106.265754,57.5091021 C105.091668,58.5755158 103.398386,58.8474727 101.949411,58.2023473 L90.6307074,53.1629358 C88.6125585,52.2643981 87.7049344,49.8999563 88.6034722,47.8818074 C88.8543139,47.3184076 89.2320328,46.8206399 89.7071145,46.4273991 L98.3085354,39.307718 C99.4791688,38.338746 101.097766,38.1168001 102.486022,38.7348911 Z" id="Polygon"></path>
                            <path d="M124.411112,48.4965706 L135.217873,53.3080505 C137.236022,54.2065883 138.143646,56.57103 137.245109,58.5891789 C137.019489,59.0959287 136.690936,59.5502124 136.280323,59.923169 L128.190845,67.2707816 C127.016759,68.3371952 125.323477,68.6091521 123.874502,67.9640267 L112.555798,62.9246153 C110.53765,62.0260775 109.630025,59.6616358 110.528563,57.6434869 C110.779405,57.0800871 111.157124,56.5823193 111.632205,56.1890785 L120.233626,49.0693975 C121.40426,48.1004255 123.022857,47.8784795 124.411112,48.4965706 Z" id="Polygon"></path>
                            <path d="M146.336203,58.25825 L157.142964,63.0697299 C159.161113,63.9682677 160.068737,66.3327094 159.1702,68.3508583 C158.94458,68.8576081 158.616027,69.3118919 158.205414,69.6848484 L150.115936,77.032461 C148.94185,78.0988746 147.248568,78.3708315 145.799593,77.7257062 L134.480889,72.6862947 C132.46274,71.7877569 131.555116,69.4233152 132.453654,67.4051663 C132.704496,66.8417665 133.082215,66.3439988 133.557296,65.950758 L142.158717,58.8310769 C143.329351,57.8621049 144.947948,57.6401589 146.336203,58.25825 Z" id="Polygon"></path>
                            <path d="M168.261294,68.0199294 L179.068055,72.8314094 C181.086204,73.7299471 181.993828,76.0943889 181.095291,78.1125378 C180.869671,78.6192876 180.541118,79.0735713 180.130505,79.4465279 L172.041027,86.7941404 C170.866941,87.8605541 169.173659,88.132511 167.724684,87.4873856 L156.40598,82.4479741 C154.387831,81.5494364 153.480207,79.1849946 154.378745,77.1668457 C154.629587,76.6034459 155.007306,76.1056782 155.482387,75.7124374 L164.083808,68.5927564 C165.254442,67.6237843 166.873039,67.4018384 168.261294,68.0199294 Z" id="Polygon"></path>
                            <path d="M190.186385,77.7816089 L200.993146,82.5930888 C203.011295,83.4916266 203.918919,85.8560683 203.020382,87.8742172 C202.794762,88.380967 202.466209,88.8352507 202.055596,89.2082073 L193.966118,96.5558199 C192.792032,97.6222335 191.09875,97.8941904 189.649775,97.249065 L178.331071,92.2096536 C176.312922,91.3111158 175.405298,88.9466741 176.303836,86.9285252 C176.554678,86.3651254 176.932397,85.8673576 177.407478,85.4741168 L186.008899,78.3544358 C187.179533,77.3854638 188.79813,77.1635178 190.186385,77.7816089 Z" id="Polygon"></path>
                            <path d="M212.111476,87.5432883 L222.918237,92.3547682 C224.936386,93.253306 225.84401,95.6177477 224.945473,97.6358966 C224.719853,98.1426464 224.3913,98.5969302 223.980687,98.9698867 L215.891209,106.317499 C214.717123,107.383913 213.023841,107.65587 211.574866,107.010744 L200.256162,101.971333 C198.238013,101.072795 197.330389,98.7083535 198.228927,96.6902046 C198.479769,96.1268048 198.857488,95.6290371 199.332569,95.2357963 L207.93399,88.1161152 C209.104624,87.1471432 210.723221,86.9251972 212.111476,87.5432883 Z" id="Polygon"></path>
                            <path d="M234.036568,97.3049678 L244.843328,102.116448 C246.861477,103.014986 247.769102,105.379427 246.870564,107.397576 C246.644944,107.904326 246.316391,108.35861 245.905778,108.731566 L237.8163,116.079179 C236.642214,117.145592 234.948932,117.417549 233.499957,116.772424 L222.181254,111.733013 C220.163105,110.834475 219.25548,108.470033 220.154018,106.451884 C220.40486,105.888484 220.782579,105.390717 221.257661,104.997476 L229.859081,97.8777947 C231.029715,96.9088227 232.648312,96.6868768 234.036568,97.3049678 Z" id="Polygon"></path>
                        </g>
                        <g id="Row4-Keyboard" transform="translate(9.991628, 66.138720)" fill="#646262">
                            <path d="M17.7471053,1.00905792 L28.5538662,5.82053786 C30.5720151,6.71907564 31.4796392,9.08351736 30.5811014,11.1016663 C30.3554819,11.6084161 30.0269291,12.0626998 29.6163162,12.4356564 L21.5268378,19.7832689 C20.3527517,20.8496826 18.65947,21.1216395 17.2104947,20.4765141 L5.89179123,15.4371026 C3.87364233,14.5385648 2.96601819,12.1741231 3.86455597,10.1559742 C4.11539772,9.59257442 4.49311662,9.0948067 4.96819827,8.70156588 L13.5696192,1.58188484 C14.7402526,0.612912828 16.3588501,0.390966857 17.7471053,1.00905792 Z" id="Polygon"></path>
                            <path d="M38.5378395,10.2633261 L49.3446003,15.0748061 C51.3627492,15.9733438 52.2703734,18.3377856 51.3718356,20.3559345 C51.1462161,20.8626843 50.8176632,21.316968 50.4070504,21.6899246 L42.317572,29.0375371 C41.1434859,30.1039507 39.4502042,30.3759077 38.0012288,29.7307823 L26.6825254,24.6913708 C24.6643765,23.792833 23.7567524,21.4283913 24.6552901,19.4102424 C24.9061319,18.8468426 25.2838508,18.3490749 25.7589324,17.9558341 L34.3603534,10.836153 C35.5309867,9.86718102 37.1495842,9.64523505 38.5378395,10.2633261 Z" id="Polygon"></path>
                            <path d="M59.549385,19.6182689 L70.3561459,24.4297488 C72.3742948,25.3282866 73.2819189,27.6927283 72.3833811,29.7108772 C72.1577616,30.217627 71.8292088,30.6719108 71.4185959,31.0448673 L63.3291175,38.3924799 C62.1550314,39.4588935 60.4617497,39.7308504 59.0127744,39.0857251 L47.6940709,34.0463136 C45.675922,33.1477758 44.7682979,30.7833341 45.6668357,28.7651852 C45.9176774,28.2017854 46.2953963,27.7040177 46.770478,27.3107769 L55.3718989,20.1910958 C56.5425323,19.2221238 58.1611297,19.0001778 59.549385,19.6182689 Z" id="Polygon"></path>
                            <g id="Space-Bar" transform="translate(62.960036, 28.831403)">
                                <path d="M39.6721963,10.7707374 L50.4789572,15.5822173 C52.4971061,16.4807551 53.4047302,18.8451968 52.5061924,20.8633457 C52.2805729,21.3700955 51.95202,21.8243792 51.5414072,22.1973358 L43.4519288,29.5449484 C42.2778427,30.611362 40.584561,30.8833189 39.1355857,30.2381935 L27.8168822,25.1987821 C25.7987333,24.3002443 24.8911092,21.9358026 25.789647,19.9176537 C26.0404887,19.3542539 26.4182076,18.8564861 26.8932892,18.4632453 L35.4947102,11.3435643 C36.6653435,10.3745923 38.283941,10.1526463 39.6721963,10.7707374 Z" id="Polygon"></path>
                                <path d="M27.7961053,5.48316099 L38.6028662,10.2946409 C40.6210151,11.1931787 41.5286393,13.5576204 40.6301015,15.5757693 C40.4044819,16.0825191 40.0759291,16.5368028 39.6653162,16.9097594 L31.5758379,24.257372 C30.4017518,25.3237856 28.70847,25.5957425 27.2594947,24.9506172 L15.9407913,19.9112057 C13.9226424,19.0126679 13.0150182,16.6482262 13.913556,14.6300773 C14.1643978,14.0666775 14.5421167,13.5689098 15.0171983,13.175669 L23.6186192,6.05598791 C24.7892526,5.0870159 26.4078501,4.86506993 27.7961053,5.48316099 Z" id="Polygon"></path>
                                <path d="M17.7471053,1.00905792 L28.5538662,5.82053786 C30.5720151,6.71907564 31.4796392,9.08351736 30.5811014,11.1016663 C30.3554819,11.6084161 30.0269291,12.0626998 29.6163162,12.4356564 L21.5268378,19.7832689 C20.3527517,20.8496826 18.65947,21.1216395 17.2104947,20.4765141 L5.89179123,15.4371026 C3.87364233,14.5385648 2.96601819,12.1741231 3.86455597,10.1559742 C4.11539772,9.59257442 4.49311662,9.0948067 4.96819827,8.70156588 L13.5696192,1.58188484 C14.7402526,0.612912828 16.3588501,0.390966857 17.7471053,1.00905792 Z" id="Polygon"></path>
                                <path d="M51.5482872,16.0583137 L62.3550481,20.8697936 C64.373197,21.7683314 65.2808212,24.1327732 64.3822834,26.1509221 C64.1566638,26.6576719 63.828111,27.1119556 63.4174981,27.4849122 L55.3280198,34.8325247 C54.1539337,35.8989383 52.4606519,36.1708953 51.0116766,35.5257699 L39.6929732,30.4863584 C37.6748243,29.5878206 36.7672001,27.2233789 37.6657379,25.20523 C37.9165797,24.6418302 38.2942985,24.1440625 38.7693802,23.7508217 L47.3708011,16.6311406 C48.5414345,15.6621686 50.160032,15.4402227 51.5482872,16.0583137 Z" id="Polygon"></path>
                                <path d="M63.4243782,21.3458901 L74.2311391,26.15737 C76.249288,27.0559078 77.1569121,29.4203495 76.2583743,31.4384984 C76.0327548,31.9452482 75.7042019,32.3995319 75.2935891,32.7724885 L67.2041107,40.1201011 C66.0300246,41.1865147 64.3367429,41.4584716 62.8877676,40.8133462 L51.5690641,35.7739348 C49.5509152,34.875397 48.6432911,32.5109553 49.5418288,30.4928064 C49.7926706,29.9294066 50.1703895,29.4316389 50.6454711,29.038398 L59.2468921,21.918717 C60.4175254,20.949745 62.0361229,20.727799 63.4243782,21.3458901 Z" id="Polygon"></path>
                                <path d="M76.2140146,27.0402031 L87.0207755,31.851683 C89.0389244,32.7502208 89.9465485,35.1146625 89.0480107,37.1328114 C88.8223912,37.6395612 88.4938384,38.0938449 88.0832255,38.4668015 L79.9937471,45.8144141 C78.819661,46.8808277 77.1263793,47.1527846 75.677404,46.5076592 L64.3587005,41.4682478 C62.3405516,40.56971 61.4329275,38.2052683 62.3314653,36.1871194 C62.582307,35.6237196 62.9600259,35.1259519 63.4351076,34.732711 L72.0365285,27.61303 C73.2071619,26.644058 74.8257593,26.422112 76.2140146,27.0402031 Z" id="Polygon"></path>
                                <path d="M83.5223783,30.2940962 L94.3291391,35.1055762 C96.347288,36.0041139 97.2549122,38.3685557 96.3563744,40.3867046 C96.1307548,40.8934544 95.802202,41.3477381 95.3915891,41.7206947 L87.3021108,49.0683072 C86.1280247,50.1347209 84.434743,50.4066778 82.9857676,49.7615524 L71.6670642,44.7221409 C69.6489153,43.8236031 68.7412911,41.4591614 69.6398289,39.4410125 C69.8906707,38.8776127 70.2683896,38.379845 70.7434712,37.9866042 L79.3448922,30.8669231 C80.5155255,29.8979511 82.134123,29.6760052 83.5223783,30.2940962 Z" id="Polygon"></path>
                            </g>
                            <path d="M168.261294,68.0199294 L179.068055,72.8314094 C181.086204,73.7299471 181.993828,76.0943889 181.095291,78.1125378 C180.869671,78.6192876 180.541118,79.0735713 180.130505,79.4465279 L172.041027,86.7941404 C170.866941,87.8605541 169.173659,88.132511 167.724684,87.4873856 L156.40598,82.4479741 C154.387831,81.5494364 153.480207,79.1849946 154.378745,77.1668457 C154.629587,76.6034459 155.007306,76.1056782 155.482387,75.7124374 L164.083808,68.5927564 C165.254442,67.6237843 166.873039,67.4018384 168.261294,68.0199294 Z" id="Polygon"></path>
                            <path d="M190.186385,77.7816089 L200.993146,82.5930888 C203.011295,83.4916266 203.918919,85.8560683 203.020382,87.8742172 C202.794762,88.380967 202.466209,88.8352507 202.055596,89.2082073 L193.966118,96.5558199 C192.792032,97.6222335 191.09875,97.8941904 189.649775,97.249065 L178.331071,92.2096536 C176.312922,91.3111158 175.405298,88.9466741 176.303836,86.9285252 C176.554678,86.3651254 176.932397,85.8673576 177.407478,85.4741168 L186.008899,78.3544358 C187.179533,77.3854638 188.79813,77.1635178 190.186385,77.7816089 Z" id="Polygon"></path>
                            <path d="M212.111476,87.5432883 L222.918237,92.3547682 C224.936386,93.253306 225.84401,95.6177477 224.945473,97.6358966 C224.719853,98.1426464 224.3913,98.5969302 223.980687,98.9698867 L215.891209,106.317499 C214.717123,107.383913 213.023841,107.65587 211.574866,107.010744 L200.256162,101.971333 C198.238013,101.072795 197.330389,98.7083535 198.228927,96.6902046 C198.479769,96.1268048 198.857488,95.6290371 199.332569,95.2357963 L207.93399,88.1161152 C209.104624,87.1471432 210.723221,86.9251972 212.111476,87.5432883 Z" id="Polygon"></path>
                            <path d="M234.036568,97.3049678 L244.843328,102.116448 C246.861477,103.014986 247.769102,105.379427 246.870564,107.397576 C246.644944,107.904326 246.316391,108.35861 245.905778,108.731566 L237.8163,116.079179 C236.642214,117.145592 234.948932,117.417549 233.499957,116.772424 L222.181254,111.733013 C220.163105,110.834475 219.25548,108.470033 220.154018,106.451884 C220.40486,105.888484 220.782579,105.390717 221.257661,104.997476 L229.859081,97.8777947 C231.029715,96.9088227 232.648312,96.6868768 234.036568,97.3049678 Z" id="Polygon"></path>
                        </g>
                    </g>
                </g>
            </g>
        </g>
    </g>
</svg>