<?xml version="1.0" encoding="UTF-8"?>
<svg width="320px" height="286px" viewBox="0 0 320 286" version="1.1" xmlns="http://www.w3.org/2000/svg" xmlns:xlink="http://www.w3.org/1999/xlink">
    <!-- Generator: Sketch 57.1 (83088) - https://sketch.com -->
    <title>Starbucks Logo</title>
    <desc>Created with Sketch.</desc>
    <defs>
        <circle id="path-1" cx="160" cy="131" r="91"></circle>
    </defs>
    <g id="Starbucks-Logo" stroke="none" stroke-width="1" fill="none" fill-rule="evenodd">
        <mask id="mask-2" fill="white">
            <use xlink:href="#path-1"></use>
        </mask>
        <g id="Mask"></g>
        <circle id="Background" stroke="#FFFFFF" stroke-width="4" fill="#327354" mask="url(#mask-2)" cx="160" cy="131" r="89"></circle>
        <g id="Tail-Left" mask="url(#mask-2)">
            <g transform="translate(62.000000, 86.000000)">
                <g id="Fin" stroke-width="1" fill="none" transform="translate(37.500000, 13.500000) rotate(21.000000) translate(-37.500000, -13.500000) translate(22.000000, 5.000000)">
                    <path d="M0,0.25 C2,-0.416666667 5,0.25 9,2.25 C13,4.25 16,7.25 18,11.25 L7,16.25 C7,13.5833333 6.33333333,10.5833333 5,7.25 C3.66666667,3.91666667 2,1.58333333 0,0.25 Z" id="Triangle" fill="#FFFFFF"></path>
                    <path d="M13,0.25 C15,-0.416666667 18,0.25 22,2.25 C26,4.25 29,7.25 31,11.25 L20,16.25 C20,13.5833333 19.3333333,10.5833333 18,7.25 C16.6666667,3.91666667 15,1.58333333 13,0.25 Z" id="Triangle" fill="#FFFFFF" transform="translate(22.000000, 8.125000) scale(-1, 1) translate(-22.000000, -8.125000) "></path>
                </g>
                <path d="M28.1101685,29.8163649 C29.7439834,33.0519928 28.9214494,42.0267615 27.3073579,45.0108811 C26.845879,45.8640597 25.1413729,45.5741518 22.1938395,44.1411576 L22.1938356,44.1411658 C21.6971349,43.8996861 21.4902373,43.3012727 21.7317169,42.804572 C21.7655941,42.73489 21.8074548,42.6693812 21.8564566,42.6093639 C25.0979818,38.6391592 24.4064681,31.7912162 19.7819154,22.0655348 C18.2758928,18.8982887 18.9453972,16.5431104 21.7904286,15 L27.6307383,17.823675 C24.6331005,19.2492614 24.7929106,23.2468247 28.1101685,29.8163649 Z" id="Rectangle" fill="#FFFFFF" transform="translate(24.000000, 30.244239) rotate(92.000000) translate(-24.000000, -30.244239) "></path>
                <path d="M23.0909356,41.0829771 C26.509375,48.6382124 23.7996092,53.2933737 22.389661,56.2774933 C22.389661,56.2774933 22.389661,56.2774933 22.389661,56.2774933 C21.8089228,57.5066111 20.3417446,58.0322266 19.1126267,57.4514883 C17.8835089,56.8707501 17.3578934,55.4035719 17.9386317,54.1744541 C18.0251775,53.991282 18.1340061,53.8194952 18.2626481,53.6629914 C20.5379658,50.8948424 19.8043466,45.0055589 16.0617732,35.9951266 C14.7462258,32.8278805 14.6531605,30.1628383 15.7825773,28 L22.6721417,29.0902872 C20.0734079,30.7247812 20.2130059,34.7223445 23.0909356,41.0829771 Z" id="Rectangle" fill="#FFFFFF" transform="translate(19.873488, 42.377545) rotate(92.000000) translate(-19.873488, -42.377545) "></path>
                <path d="M20.4510924,54.8152824 C23.8695317,62.3705177 21.1597659,67.0256789 19.7498178,70.0097986 C19.3458318,70.8648246 17.851324,70.5718085 15.2662941,69.1307502 L15.2663019,69.1307364 C14.7839169,68.8618246 14.6108626,68.2527783 14.8797744,67.7703933 C14.8993158,67.7353392 14.9209498,67.7014932 14.9445589,67.669039 C17.8259696,63.7081261 17.2365035,56.8399305 13.1761606,47.0644523 C11.8606132,43.8972062 12.4454416,41.5420279 14.9306458,39.9989175 L21.5227713,39.8934357 C17.9303889,43.4807008 17.5731626,48.4546497 20.4510924,54.8152824 Z" id="Rectangle" fill="#FFFFFF" transform="translate(17.300136, 55.190416) rotate(82.000000) translate(-17.300136, -55.190416) "></path>
                <path d="M18.9579539,67.9218467 C22.3763932,75.477082 19.6666275,80.1322433 18.2566793,83.1163629 C17.8526934,83.9713889 16.3581855,83.6783728 13.7731557,82.2373145 L13.7731634,82.2373007 C13.2907784,81.968389 13.1177242,81.3593426 13.3866359,80.8769577 C13.4061773,80.8419035 13.4278113,80.8080575 13.4514204,80.7756033 C16.3328312,76.8146904 15.7433651,69.9464948 11.6830221,60.1710166 C10.3674747,57.0037705 10.9523031,54.6485923 13.4375073,53.1054818 L20.0296328,53 C16.4372504,56.5872652 16.0800241,61.5612141 18.9579539,67.9218467 Z" id="Rectangle" fill="#FFFFFF" transform="translate(15.806997, 68.296980) rotate(83.000000) translate(-15.806997, -68.296980) "></path>
                <path d="M22.4576333,87.2761794 C23.7727295,90.5560933 23.0663543,94.7022484 21.7829441,97.686368 C21.4109736,98.5512548 20.0233239,98.2414666 17.6199948,96.7570035 L17.6199871,96.757016 C17.151714,96.467778 17.0051972,95.8545068 17.2921589,95.3848354 C19.0810395,92.4569671 19.1553622,89.7912672 17.515127,87.3877357 C16.4890135,86.4496451 14.7613005,81.5007594 16.5445097,74.8595221 C17.0874409,72.8374741 18.5506601,71.1136569 20.9341673,69.6880704 L27.7727856,71.1639655 C24.0030295,73.8015657 21.8082031,75.9746428 21.1883064,77.6831971 C20.1580975,80.5226505 21.455627,84.7771269 22.4576333,87.2761794 Z" id="Rectangle" fill="#FFFFFF" transform="translate(21.772786, 83.926018) rotate(61.000000) translate(-21.772786, -83.926018) "></path>
                <path d="M30.1277771,97.588109 C31.3332819,100.868023 30.6857713,105.014178 29.509312,107.998298 C29.1676618,108.864902 27.8912697,108.552161 25.6801359,107.060073 L25.6801444,107.06006 C25.2478757,106.768363 25.1123374,106.193453 25.3687879,105.739386 C27.0318683,102.794761 27.1079878,100.114854 25.5971463,97.6996652 C24.6565423,96.7615746 23.0728053,91.812689 24.7074138,85.1714516 C25.2051007,83.1494036 26.546385,81.4255864 28.7312666,80 L35,81.4758951 C31.5443902,84.1134952 29.532466,86.2865724 28.9642274,87.9951266 C28.0198693,90.83458 29.2092713,95.0890564 30.1277771,97.588109 Z" id="Rectangle" fill="#FFFFFF" transform="translate(29.500000, 94.237948) rotate(61.000000) translate(-29.500000, -94.237948) "></path>
                <path d="M45.8003259,117.179223 C46.8962394,120.459137 46.3075934,124.605292 45.238085,127.589411 C44.9266757,128.458299 43.7610183,128.141619 41.7411129,126.639371 L41.7411363,126.639339 C41.347778,126.34679 41.2244993,125.812221 41.4500131,125.376952 C42.9850961,122.414053 43.0622819,119.718662 41.6815707,117.290779 C40.8264761,116.352688 39.3867152,111.403803 40.8727229,104.762565 C41.3251656,102.740517 42.5445149,101.0167 44.5307709,99.5911138 L50.2296195,101.067009 C47.0881561,103.704609 45.2591341,105.877686 44.7425535,107.58624 C43.8840461,110.425694 44.9653207,114.68017 45.8003259,117.179223 Z" id="Rectangle" fill="#FFFFFF" transform="translate(45.229619, 113.829061) rotate(31.000000) translate(-45.229619, -113.829061) "></path>
                <path d="M36.5127443,109.772966 C37.8278405,113.05288 37.1214653,117.199035 35.8380551,120.183154 C35.4660846,121.048041 34.0784349,120.738253 31.6751058,119.25379 L31.6750981,119.253802 C31.206825,118.964564 31.0603082,118.351293 31.3472699,117.881622 C33.1361505,114.953753 33.2104732,112.288053 31.570238,109.884522 C30.5441245,108.946431 28.8164115,103.997546 30.5996207,97.3563084 C31.1425519,95.3342604 32.6057711,93.6104432 34.9892783,92.1848568 L41.8278966,93.6607519 C38.0581405,96.298352 35.8633141,98.4714292 35.2434174,100.179983 C34.2132085,103.019437 35.510738,107.273913 36.5127443,109.772966 Z" id="Rectangle" fill="#FFFFFF" transform="translate(35.827897, 106.422804) rotate(41.000000) translate(-35.827897, -106.422804) "></path>
                <path d="M55.477503,118.943578 C56.4638251,122.223492 55.9340437,126.369647 54.9714861,129.353766 C54.6902423,130.225678 53.6348142,129.903755 51.8052018,128.387997 L51.8052333,128.387959 C51.4538491,128.096852 51.3441035,127.604793 51.538486,127.191962 C52.9429622,124.209122 53.0203413,121.496846 51.7706233,119.055134 C51.0010381,118.117043 49.7052534,113.168158 51.0426603,106.52692 C51.4498587,104.504872 52.5472731,102.781055 54.3349035,101.355469 L59.4638672,102.831364 C56.6365501,105.468964 54.9904303,107.642041 54.5255078,109.350595 C53.7528511,112.190049 54.7259983,116.444525 55.477503,118.943578 Z" id="Rectangle" fill="#FFFFFF" transform="translate(54.963867, 115.593416) rotate(15.000000) translate(-54.963867, -115.593416) "></path>
                <path d="M31,9 L43,15 L43,25 C41,20.3333333 36.3333333,19.6666667 29,23 C21.6666667,26.3333333 17.3333333,27 16,25 C19.3333333,25 22.6666667,22.6666667 26,18 C29.3333333,13.3333333 31,10.3333333 31,9 Z" id="Rectangle" fill="#FFFFFF"></path>
            </g>
        </g>
        <g id="Tail-Left" mask="url(#mask-2)">
            <g transform="translate(225.500000, 151.000000) scale(-1, 1) translate(-225.500000, -151.000000) translate(195.000000, 85.000000)">
                <g id="Fin" stroke-width="1" fill="none" transform="translate(37.500000, 13.500000) rotate(21.000000) translate(-37.500000, -13.500000) translate(22.000000, 5.000000)">
                    <path d="M0,0.25 C2,-0.416666667 5,0.25 9,2.25 C13,4.25 16,7.25 18,11.25 L7,16.25 C7,13.5833333 6.33333333,10.5833333 5,7.25 C3.66666667,3.91666667 2,1.58333333 0,0.25 Z" id="Triangle" fill="#FFFFFF"></path>
                    <path d="M13,0.25 C15,-0.416666667 18,0.25 22,2.25 C26,4.25 29,7.25 31,11.25 L20,16.25 C20,13.5833333 19.3333333,10.5833333 18,7.25 C16.6666667,3.91666667 15,1.58333333 13,0.25 Z" id="Triangle" fill="#FFFFFF" transform="translate(22.000000, 8.125000) scale(-1, 1) translate(-22.000000, -8.125000) "></path>
                </g>
                <path d="M28.1101685,29.8163649 C29.7439834,33.0519928 28.9214494,42.0267615 27.3073579,45.0108811 C26.845879,45.8640597 25.1413729,45.5741518 22.1938395,44.1411576 L22.1938356,44.1411658 C21.6971349,43.8996861 21.4902373,43.3012727 21.7317169,42.804572 C21.7655941,42.73489 21.8074548,42.6693812 21.8564566,42.6093639 C25.0979818,38.6391592 24.4064681,31.7912162 19.7819154,22.0655348 C18.2758928,18.8982887 18.9453972,16.5431104 21.7904286,15 L27.6307383,17.823675 C24.6331005,19.2492614 24.7929106,23.2468247 28.1101685,29.8163649 Z" id="Rectangle" fill="#FFFFFF" transform="translate(24.000000, 30.244239) rotate(92.000000) translate(-24.000000, -30.244239) "></path>
                <path d="M23.0909356,41.0829771 C26.509375,48.6382124 23.7996092,53.2933737 22.389661,56.2774933 C22.389661,56.2774933 22.389661,56.2774933 22.389661,56.2774933 C21.8089228,57.5066111 20.3417446,58.0322266 19.1126267,57.4514883 C17.8835089,56.8707501 17.3578934,55.4035719 17.9386317,54.1744541 C18.0251775,53.991282 18.1340061,53.8194952 18.2626481,53.6629914 C20.5379658,50.8948424 19.8043466,45.0055589 16.0617732,35.9951266 C14.7462258,32.8278805 14.6531605,30.1628383 15.7825773,28 L22.6721417,29.0902872 C20.0734079,30.7247812 20.2130059,34.7223445 23.0909356,41.0829771 Z" id="Rectangle" fill="#FFFFFF" transform="translate(19.873488, 42.377545) rotate(92.000000) translate(-19.873488, -42.377545) "></path>
                <path d="M20.4510924,54.8152824 C23.8695317,62.3705177 21.1597659,67.0256789 19.7498178,70.0097986 C19.3458318,70.8648246 17.851324,70.5718085 15.2662941,69.1307502 L15.2663019,69.1307364 C14.7839169,68.8618246 14.6108626,68.2527783 14.8797744,67.7703933 C14.8993158,67.7353392 14.9209498,67.7014932 14.9445589,67.669039 C17.8259696,63.7081261 17.2365035,56.8399305 13.1761606,47.0644523 C11.8606132,43.8972062 12.4454416,41.5420279 14.9306458,39.9989175 L21.5227713,39.8934357 C17.9303889,43.4807008 17.5731626,48.4546497 20.4510924,54.8152824 Z" id="Rectangle" fill="#FFFFFF" transform="translate(17.300136, 55.190416) rotate(82.000000) translate(-17.300136, -55.190416) "></path>
                <path d="M18.9579539,67.9218467 C22.3763932,75.477082 19.6666275,80.1322433 18.2566793,83.1163629 C17.8526934,83.9713889 16.3581855,83.6783728 13.7731557,82.2373145 L13.7731634,82.2373007 C13.2907784,81.968389 13.1177242,81.3593426 13.3866359,80.8769577 C13.4061773,80.8419035 13.4278113,80.8080575 13.4514204,80.7756033 C16.3328312,76.8146904 15.7433651,69.9464948 11.6830221,60.1710166 C10.3674747,57.0037705 10.9523031,54.6485923 13.4375073,53.1054818 L20.0296328,53 C16.4372504,56.5872652 16.0800241,61.5612141 18.9579539,67.9218467 Z" id="Rectangle" fill="#FFFFFF" transform="translate(15.806997, 68.296980) rotate(83.000000) translate(-15.806997, -68.296980) "></path>
                <path d="M22.4576333,87.2761794 C23.7727295,90.5560933 23.0663543,94.7022484 21.7829441,97.686368 C21.4109736,98.5512548 20.0233239,98.2414666 17.6199948,96.7570035 L17.6199871,96.757016 C17.151714,96.467778 17.0051972,95.8545068 17.2921589,95.3848354 C19.0810395,92.4569671 19.1553622,89.7912672 17.515127,87.3877357 C16.4890135,86.4496451 14.7613005,81.5007594 16.5445097,74.8595221 C17.0874409,72.8374741 18.5506601,71.1136569 20.9341673,69.6880704 L27.7727856,71.1639655 C24.0030295,73.8015657 21.8082031,75.9746428 21.1883064,77.6831971 C20.1580975,80.5226505 21.455627,84.7771269 22.4576333,87.2761794 Z" id="Rectangle" fill="#FFFFFF" transform="translate(21.772786, 83.926018) rotate(61.000000) translate(-21.772786, -83.926018) "></path>
                <path d="M30.1277771,97.588109 C31.3332819,100.868023 30.6857713,105.014178 29.509312,107.998298 C29.1676618,108.864902 27.8912697,108.552161 25.6801359,107.060073 L25.6801444,107.06006 C25.2478757,106.768363 25.1123374,106.193453 25.3687879,105.739386 C27.0318683,102.794761 27.1079878,100.114854 25.5971463,97.6996652 C24.6565423,96.7615746 23.0728053,91.812689 24.7074138,85.1714516 C25.2051007,83.1494036 26.546385,81.4255864 28.7312666,80 L35,81.4758951 C31.5443902,84.1134952 29.532466,86.2865724 28.9642274,87.9951266 C28.0198693,90.83458 29.2092713,95.0890564 30.1277771,97.588109 Z" id="Rectangle" fill="#FFFFFF" transform="translate(29.500000, 94.237948) rotate(61.000000) translate(-29.500000, -94.237948) "></path>
                <path d="M44.5707065,115.588109 C45.6666199,118.868023 45.0779739,123.014178 44.0084655,125.998298 C43.6970562,126.867185 42.5313988,126.550505 40.5114934,125.048257 L40.5115168,125.048226 C40.1181585,124.755677 39.9948798,124.221107 40.2203936,123.785838 C41.7554766,120.822939 41.8326625,118.127548 40.4519512,115.699665 C39.5968566,114.761575 38.1570957,109.812689 39.6431035,103.171452 C40.0955461,101.149404 41.3148954,99.4255864 43.3011514,98 L49,99.4758951 C45.8585366,102.113495 44.0295146,104.286572 43.512934,105.995127 C42.6544266,108.83458 43.7357012,113.089056 44.5707065,115.588109 Z" id="Rectangle" fill="#FFFFFF" transform="translate(44.000000, 112.237948) rotate(31.000000) translate(-44.000000, -112.237948) "></path>
                <path d="M36.5127443,109.772966 C37.8278405,113.05288 37.1214653,117.199035 35.8380551,120.183154 C35.4660846,121.048041 34.0784349,120.738253 31.6751058,119.25379 L31.6750981,119.253802 C31.206825,118.964564 31.0603082,118.351293 31.3472699,117.881622 C33.1361505,114.953753 33.2104732,112.288053 31.570238,109.884522 C30.5441245,108.946431 28.8164115,103.997546 30.5996207,97.3563084 C31.1425519,95.3342604 32.6057711,93.6104432 34.9892783,92.1848568 L41.8278966,93.6607519 C38.0581405,96.298352 35.8633141,98.4714292 35.2434174,100.179983 C34.2132085,103.019437 35.510738,107.273913 36.5127443,109.772966 Z" id="Rectangle" fill="#FFFFFF" transform="translate(35.827897, 106.422804) rotate(41.000000) translate(-35.827897, -106.422804) "></path>
                <path d="M53.0136358,119.588109 C53.999958,122.868023 53.4701765,127.014178 52.5076189,129.998298 C52.2263751,130.870209 51.170947,130.548286 49.3413346,129.032529 L49.3413661,129.03249 C48.9899819,128.741383 48.8802363,128.249324 49.0746188,127.836493 C50.479095,124.853653 50.5564741,122.141377 49.3067561,119.699665 C48.5371709,118.761575 47.2413862,113.812689 48.5787931,107.171452 C48.9859915,105.149404 50.0834059,103.425586 51.8710363,102 L57,103.475895 C54.1726829,106.113495 52.5265631,108.286572 52.0616406,109.995127 C51.2889839,112.83458 52.2621311,117.089056 53.0136358,119.588109 Z" id="Rectangle" fill="#FFFFFF" transform="translate(52.500000, 116.237948) rotate(15.000000) translate(-52.500000, -116.237948) "></path>
                <path d="M31,9 L43,15 L43,25 C41,20.3333333 36.3333333,19.6666667 29,23 C21.6666667,26.3333333 17.3333333,27 16,25 C19.3333333,25 22.6666667,22.6666667 26,18 C29.3333333,13.3333333 31,10.3333333 31,9 Z" id="Rectangle" fill="#FFFFFF"></path>
            </g>
        </g>
        <g id="Crown" mask="url(#mask-2)" fill="#FFFFFF">
            <g transform="translate(128.000000, 52.000000)">
                <polygon id="Star" points="33 18 25.946577 21.7082039 27.2936609 13.854102 21.5873218 8.29179607 29.4732885 7.14589803 33 0 36.5267115 7.14589803 44.4126782 8.29179607 38.7063391 13.854102 40.053423 21.7082039"></polygon>
                <path d="M6,25 C16.8888889,22.3333333 25.5555556,21 32,21 C38.4444444,21 47.4444444,22 59,24 L58,34 C47.1111111,30.6666667 38.4444444,29 32,29 C25.5555556,29 16.8888889,30.6666667 6,34 L6,25 Z" id="Rectangle"></path>
                <path d="M0,16 C4.09530634,16.5490477 7.09530634,17.2157144 9,18 C10.9046937,18.7842856 13.5713603,20.4509523 17,23 L6,34 C6,30.6666667 5.33333333,27.3333333 4,24 C2.66666667,20.6666667 1.33333333,18 0,16 Z" id="Triangle"></path>
                <path d="M48,16 C52.0953063,16.5490477 55.0953063,17.2157144 57,18 C58.9046937,18.7842856 61.5713603,20.4509523 65,23 L55,34 C54.904199,31.1822261 54.2375324,28.1822261 53,25 C51.7624676,21.8177739 50.095801,18.8177739 48,16 Z" id="Triangle" transform="translate(56.500000, 25.000000) scale(-1, 1) translate(-56.500000, -25.000000) "></path>
                <path d="M36,11 C42,11 46.1363636,11.9375 48.4090909,13.8125 C50.6818182,15.6875 53.5454545,19.125 57,24.125 L44.5909091,26 C42.9460997,21.5191243 41.6733724,18.3941243 40.7727273,16.625 C39.8720821,14.8558757 38.2811731,12.9808757 36,11 Z" id="Triangle" transform="translate(46.500000, 18.500000) scale(-1, 1) translate(-46.500000, -18.500000) "></path>
                <path d="M8,11 C14,11 18.3333333,11.9375 21,13.8125 C23.6666667,15.6875 26.3333333,19.125 29,24.125 L17,26 C15.2768663,21.5191243 13.943533,18.3941243 13,16.625 C12.056467,14.8558757 10.3898003,12.9808757 8,11 Z" id="Triangle"></path>
            </g>
        </g>
        <circle id="Inner-Mask" stroke="#327354" fill="#327354" mask="url(#mask-2)" cx="159.5" cy="146.5" r="66.5"></circle>
        <g id="Hair-Left" mask="url(#mask-2)">
            <g transform="translate(120.000000, 85.000000)">
                <g id="Strand1" transform="translate(14.000000, 0.000000)">
                    <path d="M11,39.7245351 C9.66741643,40.6528699 10.1426661,43.9947591 7.94943156,47.4412367 C4.9365333,52.1757447 2.36447858,58.4210344 3.48494539,61.5903238 C6.82454288,71.0365212 10.8151466,74.308289 12.4849454,83.7544865 C14.1547441,93.2006839 5.06764432,98.1580298 3.48494539,109.243274 C2.42981278,116.633436 2.61153405,123.614054 5,131 L13,131 M13,131 L2.48494539,130.993071 C0.0964794425,123.607126 -0.570187224,116.219071 0.484945392,108.828909 C2.06764432,97.743665 11.1547441,92.7863192 9.48494539,83.3401217 C7.81514665,73.8939243 3.82454288,70.6221565 0.484945392,61.175959 C-0.635521425,58.0066697 1.9365333,51.7613799 4.94943156,47.0268719 C8.28902906,41.7789844 9.08020723,35.0946887 11,37.5081188" id="Shape" fill="#FFFFFF"></path>
                    <path d="M6.98441519,9.90601863 C6.43046534,12.514186 5.74687452,21.0410472 9.73668302,29.1486696 C11.1846505,32.0910599 12.0028247,35.5866969 10.9688304,39.9650523 C10.6348206,41.3793866 9.63871677,43.7243691 7.98051898,47 L6.98441519,45.080757 C9.26616954,38.5515899 8.93413494,33.0799639 5.98831139,28.6658791 C4.43440834,26.0787664 3,21.4411095 3,13.4234925 C3,4.04356224 13,-0.890116644 13,0.132694897 C13,1.15550644 7.98051898,5.21605352 6.98441519,9.90601863 Z" id="Rectangle" fill="#FFFFFF"></path>
                </g>
                <g id="Strand2" transform="translate(7.000000, 2.000000)">
                    <path d="M11,39.2627119 C9.66741643,40.1784915 10.1426661,43.4751839 7.94943156,46.8750501 C4.9365333,51.5455269 2.36447858,57.7063532 3.48494539,60.83278 C6.82454288,70.1512237 10.8151466,73.378743 12.4849454,82.6971867 C14.1547441,92.0156305 5.06764432,96.9059315 3.48494539,107.841255 C2.42981278,115.13147 2.61153405,122.01768 5,129.303735 L13,129.303735 M13,129.303735 L2.48494539,129.296901 C0.0964794425,122.010845 -0.570187224,114.722709 0.484945392,107.432494 C2.06764432,96.4971707 11.1547441,91.6068698 9.48494539,82.288426 C7.81514665,72.9699822 3.82454288,69.742463 0.484945392,60.4240192 C-0.635521425,57.2975924 1.9365333,51.1367662 4.94943156,46.4662893 C8.28902906,41.2893761 9.08020723,34.6954812 11,37.0762712 L13,129.303735 Z" id="Strand1" fill="#FFFFFF"></path>
                    <path d="M6.98441519,10.326983 C6.43046534,12.8227257 5.74687452,20.9820379 9.73668302,28.7401824 C11.1846505,31.5557414 12.0028247,34.9006995 10.9688304,39.0903266 C10.6348206,40.4436961 9.63871677,42.6875986 7.98051898,45.8220339 L6.98441519,43.9855196 C9.26616954,37.7377912 8.93413494,32.5020189 5.98831139,28.2782025 C4.43440834,25.8026069 3,21.3648555 3,13.6928366 C3,4.71722689 12.9220759,-0.541155983 12.961038,0.229422008 C13,1 7.98051898,5.83917811 6.98441519,10.326983 Z" id="Rectangle" fill="#FFFFFF"></path>
                </g>
                <g id="Strand3" transform="translate(0.000000, 4.000000)">
                    <path d="M11,37.2627119 C9.66741643,38.1784915 10.1426661,41.4751839 7.94943156,44.8750501 C4.9365333,49.5455269 2.36447858,55.7063532 3.48494539,58.83278 C6.82454288,68.1512237 10.8151466,71.378743 12.4849454,80.6971867 C14.1547441,90.0156305 5.06764432,94.9059315 3.48494539,105.841255 C2.42981278,113.13147 2.61153405,120.01768 5,127.303735 L13,127.303735 M13,127.303735 L2.48494539,127.296901 C0.0964794425,120.010845 -0.570187224,112.722709 0.484945392,105.432494 C2.06764432,94.4971707 11.1547441,89.6068698 9.48494539,80.288426 C7.81514665,70.9699822 3.82454288,67.742463 0.484945392,58.4240192 C-0.635521425,55.2975924 1.9365333,49.1367662 4.94943156,44.4662893 C8.28902906,39.2893761 9.08020723,32.6954812 11,35.0762712 L13,127.303735 Z" id="Strand1" fill="#FFFFFF"></path>
                    <path d="M6.98441519,9.87024607 C6.43046534,12.2574782 5.74687452,20.0620377 9.73668302,27.4828716 C11.1846505,30.176015 12.0028247,33.3755402 10.9688304,37.3830095 C10.6348206,38.6775369 9.63871677,40.8238784 7.98051898,43.8220339 L6.98441519,42.065368 C9.26616954,36.08928 8.93413494,31.0811499 5.98831139,27.0409778 C4.43440834,24.6730167 3,20.4282111 3,13.0897583 C3,4.50439241 12.9220759,-0.576581036 12.961038,0.211709482 C13,1 7.98051898,5.57756314 6.98441519,9.87024607 Z" id="Rectangle" fill="#FFFFFF"></path>
                </g>
            </g>
        </g>
        <g id="Hair-Right" mask="url(#mask-2)">
            <g transform="translate(187.500000, 150.500000) scale(-1, 1) translate(-187.500000, -150.500000) translate(174.000000, 84.000000)">
                <g id="Strand1" transform="translate(14.000000, 0.000000)">
                    <path d="M11,40.7245351 C9.66741643,41.6528699 10.1426661,44.9947591 7.94943156,48.4412367 C4.9365333,53.1757447 2.36447858,59.4210344 3.48494539,62.5903238 C6.82454288,72.0365212 10.8151466,75.308289 12.4849454,84.7544865 C14.1547441,94.2006839 5.06764432,99.1580298 3.48494539,110.243274 C2.42981278,117.633436 2.61153405,124.614054 5,132 L13,132 M13,132 L2.48494539,131.993071 C0.0964794425,124.607126 -0.570187224,117.219071 0.484945392,109.828909 C2.06764432,98.743665 11.1547441,93.7863192 9.48494539,84.3401217 C7.81514665,74.8939243 3.82454288,71.6221565 0.484945392,62.175959 C-0.635521425,59.0066697 1.9365333,52.7613799 4.94943156,48.0268719 C8.28902906,42.7789844 9.08020723,36.0946887 11,38.5081188 L13,132 Z" fill="#FFFFFF"></path>
                    <path d="M6.98441519,10.8373939 C6.43046534,13.4503864 5.74687452,21.9930226 9.73668302,30.1156442 C11.1846505,33.063478 12.0028247,36.5655821 10.9688304,40.9520375 C10.6348206,42.3689883 9.63871677,44.7183091 7.98051898,48 L6.98441519,46.0772063 C9.26616954,39.5359601 8.93413494,34.0542115 5.98831139,29.6319605 C4.43440834,27.0400616 3,22.393825 3,14.3613751 C3,4.96409179 12.9220759,-1.40198257 12.961038,0.265450121 C13,1.93288282 7.98051898,6.1387522 6.98441519,10.8373939 Z" id="Rectangle" fill="#FFFFFF"></path>
                </g>
                <g id="Strand2" transform="translate(7.000000, 3.000000)">
                    <path d="M11,39.2627119 C9.66741643,40.1784915 10.1426661,43.4751839 7.94943156,46.8750501 C4.9365333,51.5455269 2.36447858,57.7063532 3.48494539,60.83278 C6.82454288,70.1512237 10.8151466,73.378743 12.4849454,82.6971867 C14.1547441,92.0156305 5.06764432,96.9059315 3.48494539,107.841255 C2.42981278,115.13147 2.61153405,122.01768 5,129.303735 L13,129.303735 M13,129.303735 L2.48494539,129.296901 C0.0964794425,122.010845 -0.570187224,114.722709 0.484945392,107.432494 C2.06764432,96.4971707 11.1547441,91.6068698 9.48494539,82.288426 C7.81514665,72.9699822 3.82454288,69.742463 0.484945392,60.4240192 C-0.635521425,57.2975924 1.9365333,51.1367662 4.94943156,46.4662893 C8.28902906,41.2893761 9.08020723,34.6954812 11,37.0762712 L13,129.303735 Z" id="Strand1" fill="#FFFFFF"></path>
                    <path d="M7,10.326983 C6.44388341,12.8227257 5.75761877,20.9820379 9.76303318,28.7401824 C11.2166643,31.5557414 12.0380388,34.9006995 11,39.0903266 C10.6646837,40.4436961 9.66468373,42.6875986 8,45.8220339 L7,43.9855196 C9.2906793,37.7377912 8.95734597,32.5020189 6,28.2782025 C4.44001895,25.8026069 3,21.3648555 3,13.6928366 C3,4.71722689 12,-0.541155983 13,0.229422008 C14,1 8,5.83917811 7,10.326983 Z" id="Rectangle" fill="#FFFFFF"></path>
                </g>
                <g id="Strand3" transform="translate(0.000000, 5.000000)">
                    <path d="M11,37.2627119 C9.66741643,38.1784915 10.1426661,41.4751839 7.94943156,44.8750501 C4.9365333,49.5455269 2.36447858,55.7063532 3.48494539,58.83278 C6.82454288,68.1512237 10.8151466,71.378743 12.4849454,80.6971867 C14.1547441,90.0156305 5.06764432,94.9059315 3.48494539,105.841255 C2.42981278,113.13147 2.61153405,120.01768 5,127.303735 L13,127.303735 M13,127.303735 L2.48494539,127.296901 C0.0964794425,120.010845 -0.570187224,112.722709 0.484945392,105.432494 C2.06764432,94.4971707 11.1547441,89.6068698 9.48494539,80.288426 C7.81514665,70.9699822 3.82454288,67.742463 0.484945392,58.4240192 C-0.635521425,55.2975924 1.9365333,49.1367662 4.94943156,44.4662893 C8.28902906,39.2893761 9.08020723,32.6954812 11,35.0762712 L13,127.303735 Z" id="Strand1" fill="#FFFFFF"></path>
                    <path d="M7,9.87024607 C6.44388341,12.2574782 5.75761877,20.0620377 9.76303318,27.4828716 C11.2166643,30.176015 12.0380388,33.3755402 11,37.3830095 C10.6646837,38.6775369 9.66468373,40.8238784 8,43.8220339 L7,42.065368 C9.2906793,36.08928 8.95734597,31.0811499 6,27.0409778 C4.44001895,24.6730167 3,20.4282111 3,13.0897583 C3,4.50439241 12,-0.576581036 13,0.211709482 C14,1 8,5.57756314 7,9.87024607 Z" id="Rectangle" fill="#FFFFFF"></path>
                </g>
            </g>
        </g>
        <g id="Body" mask="url(#mask-2)">
            <g transform="translate(95.000000, 122.000000)">
                <g id="Body" stroke-width="1" fill="none" transform="translate(65.000000, 0.000000)">
                    <path d="M9,0 C9.53104493,0 12.0437048,3 19,3 C20.6346124,3 20.5592926,34.6666667 18.7740407,98 L0.824180236,94.5411765 C-0.274726745,86.8570954 -0.274726745,79.1708209 0.824180236,71.4823529 C2.47254071,59.9496511 12.0661214,55.9451422 10.3270475,46.1176471 C8.58797374,36.290152 4.30232786,32.8863186 0.824180236,23.0588235 C-0.342771471,19.7616052 2.33599027,13.2642231 5.47388488,8.3386057 C8.9520325,2.8788862 6,0 9,0 Z" id="Rectangle" fill="#FFFFFF" transform="translate(10.085979, 49.000000) scale(-1, 1) translate(-10.085979, -49.000000) "></path>
                    <path d="M9,0 C9.53104493,0 12.0437048,3 19,3 C20.6346124,3 20.5592926,34.6666667 18.7740407,98 L0.824180236,94.5411765 C-0.274726745,86.8570954 -0.274726745,79.1708209 0.824180236,71.4823529 C2.47254071,59.9496511 12.0661214,55.9451422 10.3270475,46.1176471 C8.58797374,36.290152 4.30232786,32.8863186 0.824180236,23.0588235 C-0.342771471,19.7616052 2.33599027,13.2642231 5.47388488,8.3386057 C8.9520325,2.8788862 6,0 9,0 Z" id="Rectangle" fill="#FFFFFF" transform="translate(10.085979, 49.000000) scale(-1, 1) translate(-10.085979, -49.000000) "></path>
                </g>
                <g id="Body" stroke-width="1" fill="none" transform="translate(56.500000, 49.000000) scale(-1, 1) translate(-56.500000, -49.000000) translate(45.000000, 0.000000)">
                    <path d="M9.98756427,0 C10.5667341,0 13.3070985,3 20.8937937,3 C22.6765395,3 22.594394,34.6666667 20.6473574,98 L1.07082763,94.5411765 C-0.127665543,86.8570954 -0.127665543,79.1708209 1.07082763,71.4823529 C2.86856738,59.9496511 13.3315466,55.9451422 11.4348728,46.1176471 C9.53819897,36.290152 4.86417523,32.8863186 1.07082763,23.0588235 C-0.201876682,19.7616052 2.71964235,13.2642231 6.1419022,8.3386057 C9.93524981,2.8788862 6.71569543,0 9.98756427,0 Z" id="Rectangle" fill="#FFFFFF" transform="translate(11.171958, 49.000000) scale(-1, 1) translate(-11.171958, -49.000000) "></path>
                </g>
                <path d="M96,38 C102.816189,38.3797242 107.765683,38.0463909 110.848485,37 C113.931286,35.9536091 118.17371,33.6202758 123.575758,30 L131,42 C124.128771,46.6538317 118.472205,49.6538317 114.030303,51 C109.588401,52.3461683 104.911633,52.6795016 100,52 C99.4545455,50.6666667 98.8282828,48.6666667 98.1212121,46 C97.4141414,43.3333333 96.7070707,40.6666667 96,38 Z" id="Arm-RIght" fill="#FFFFFF" transform="translate(113.500000, 41.170952) scale(-1, 1) translate(-113.500000, -41.170952) "></path>
                <path d="M0,43 C7.69071227,42.3098805 13.1202858,41.4180829 16.2887205,40.3246073 C19.4571553,39.2311317 23.8174247,36.7928046 29.3695286,33.0096262 L37,45.5495938 C29.9379032,50.4128354 24.1242107,53.5478273 19.5589226,54.9545695 C14.9936344,56.3613117 10.4739935,57.0431219 6,57 C5.33333333,55.6666667 4.33333333,54 3,52 C1.66666667,50 0.666666667,47 0,43 Z" id="Arm-RIght" fill="#FFFFFF"></path>
            </g>
        </g>
        <path d="M161.661894,83.0000029 C163.549325,83.0142516 168.059543,83.1950935 170.968132,85.0553313 C172.889677,86.2842878 174.188835,88.1883805 174.980187,90.1981676 C172.843604,89.3993445 171.173435,89 169.968052,89 C167.631923,89 164.968052,90 163.968052,91 C163.301386,91.6666667 162.968052,92.6666667 162.968052,94 L162.969052,96.489 L162.968052,96.5 C162.968052,96.6469433 162.726836,97.699492 162.916363,97.9557688 L162.968881,98.0003835 L162.968052,99 C163.619801,99 163.952968,98.3628349 163.967552,97.0885048 C164.795627,96.459379 165.302463,97.7115912 165.968052,98 C166.814481,98.3667686 165.968052,98 167.968052,99 C169.968052,100 172.808092,98.5799801 173.968052,98 C174.962719,97.5026667 175.462705,97.9946951 175.837042,98.4920002 C175.477405,103.088065 174.339781,107.855411 171.968085,111.777725 C169.114117,116.49762 164.42716,120 160.968609,120 C157.50555,120 152.811875,116.519552 149.969133,111.777725 C147.611929,107.845799 146.498381,103.044363 146.120127,98.4652863 C146.491658,97.9772111 146.991386,97.5116667 147.968052,98 C149.128013,98.5799801 151.968052,100 153.968052,99 C155.968052,98 155.121624,98.3667686 155.968052,98 C156.661484,97.6995268 157.182603,96.3529297 158.075328,97.1764648 C158.361683,97.4406268 158.83594,98.0629121 158.968052,98 C159.227824,97.8762968 159.005162,96.8254081 158.972028,96.5492112 L158.968052,96.5 L158.968052,94 C158.968052,92.6666667 158.634719,91.6666667 157.968052,91 C156.968052,90 154.304181,89 151.968052,89 C150.754893,89 149.070931,89.404514 146.916167,90.213542 C147.710146,88.1757611 149.031974,86.2753346 150.969085,85.0553313 C153.871375,83.2274523 158.279881,83.0223471 160.212249,83.0014914 L160.391389,83 L161.661894,83.0000029 Z M166.968323,108.694372 C164.968418,109.379561 162.968513,109.722156 160.968609,109.722156 C158.968704,109.722156 156.968799,109.379561 154.968894,108.694372 C154.968894,109.284689 155.216299,109.620716 155.711108,109.702452 L155.839964,109.717588 L155.968847,109.722156 L156.148423,110.010565 C157.764275,112.559051 159.371004,113.833294 160.968609,113.833294 C162.625384,113.833294 164.291971,112.462915 165.96837,109.722156 C166.635005,109.722156 166.968323,109.379561 166.968323,108.694372 Z M158.387306,105.107194 C158.221721,105.39497 156.732256,106.032983 157.000219,106.553597 C157.143648,106.832258 158.605149,106.872356 159.080849,107.276798 C159.681348,107.787346 159.99706,108 160.467935,108 C161.161478,108 161.421165,107.598644 161.855022,107.276798 C162.46552,106.823916 163.808546,106.798276 163.935651,106.553597 C164.205729,106.033695 162.703119,105.3758 162.548565,105.107194 C162.285487,104.64998 161.400851,105.82542 160.467935,105.830395 C159.585944,105.835099 158.654174,104.643393 158.387306,105.107194 Z M149.968052,91 C150.735841,91 154.321048,91.4188653 155.968052,93 C156.352697,93.3692616 156.743763,93.9886647 157.141857,94.8574208 C157.084052,94.8948078 157.026052,94.942 156.968052,95 C156.577121,95.3909313 155.497349,94.2646484 154.968052,94 C152.968052,93 150.434592,92.7667303 147.968052,94 C147.141053,94.4134997 146.485035,94.3140534 146,94.2672691 C146.023139,93.9453487 146.058288,93.6181576 146.106103,93.287456 C146.546568,91.7623033 147.833808,91 149.968052,91 Z M171.968052,91 C174.179265,91 175.48128,92.0910366 175.874098,94.2731099 C175.396332,94.3214233 174.760735,94.3963415 173.968052,94 C171.501513,92.7667303 168.968052,93 166.968052,94 C166.594552,94.1867499 165.946946,94.8025475 165.460699,95.0115194 C165.799797,94.3396746 165.968052,93.6698373 165.968052,93 C165.968052,91.0531626 171.200264,91 171.968052,91 Z" id="Face" fill="#FFFFFF" mask="url(#mask-2)"></path>
    </g>
</svg>